<?xml version="1.0" encoding="UTF-8"?>
<svg id="Layer_1" data-name="Layer 1" xmlns="http://www.w3.org/2000/svg" viewBox="0 0 89.3 61.17">
  <defs>
    <style>
      .cls-1 {
        fill: #ffc697;
        stroke-width: 0px;
      }
    </style>
  </defs>
  <path class="cls-1" d="M46.17,24.17c.62.23.63,1.1.02,1.34-4.17,1.65-12.7,5.87-16.04,9.05s-10.48-6.8-5.15-10.73c.31-.23.38-.68.14-.99-1.49-1.97-5.61-8.49-.48-14.63.32-.38.92-.35,1.18.07,1.64,2.69,7.61,11.17,20.32,15.89Z"/>
  <path class="cls-1" d="M81.09,16.72h-.51s1.55-1,1.55-1l.12-.07,7.05-4.54-8.03-.08c-1.87-5.1-6.25-9.21-12.02-10.57-9.02-2.12-18.03,3.32-20.11,12.16-1.21,5.15.19,10.32,3.37,14.15-.39,0-.92.02-1.59.13-1.27.2-6.12-.4-19.22,9.54-5.25,3.98-15.7-.31-22.36-3.43-1.06-.5-2.09.73-1.43,1.7l5.6,8.15c.56.83-.13,1.94-1.13,1.79l-11.07-1.69c-1.24-.19-1.85,1.45-.78,2.11,10.84,6.62,38.36,21.52,55.46,14.08,17.83-7.77,19.93-20.95,14.42-26.9,5.54-1.63,10.03-6.02,11.43-11.94.03-.12.05-.22.07-.34l.1-.06,4.82-3.12-4.56-.05h-1.19ZM66.09,16.88c-2.33-.55-3.78-2.89-3.23-5.22s2.89-3.77,5.22-3.22,3.77,2.88,3.22,5.21-2.88,3.78-5.21,3.23Z"/>
</svg>