<?xml version="1.0" encoding="UTF-8"?>
<svg id="Layer_1" data-name="Layer 1" xmlns="http://www.w3.org/2000/svg" viewBox="0 0 81.36 92.17">
  <defs>
    <style>
      .cls-1 {
        fill: #ffc697;
        stroke-width: 0px;
      }

      .cls-2 {
        fill: none;
        stroke: #ffc697;
        stroke-linecap: round;
        stroke-linejoin: round;
        stroke-width: 2px;
      }
    </style>
  </defs>
  <path class="cls-1" d="M50.83,32.51c-16.85,0-30.52,4.51-30.52,10.07,0,.18.02.37.05.55l.11.48v.03s.51,2.13.51,2.13c-2.89-1.48-5.94-2.03-8.82-1.25C-2.76,48.58-1.48,60.98,3.06,69.67c3.84,7.35,16.97,11.54,26.32,11.72l1.89,8h.5c2.18,1.6,9.64,2.78,18.49,2.78,9.62,0,17.58-1.39,18.94-3.21h.26l11.51-44.78c.26-.52.39-1.05.39-1.6,0-5.56-13.67-10.07-30.53-10.07ZM24.65,73.13c-4.78.52-15-3.61-16.79-9.09-1.7-5.2-1.27-12.14,7.32-13,4.04-.41,7.12,3.88,9.05,8.52l2.91,12.3c-.41.69-1.18,1.13-2.49,1.27ZM50.79,49.98c-12.84,0-23.24-3.43-23.24-7.66s10.4-7.67,23.24-7.67,23.24,3.43,23.24,7.67-10.41,7.66-23.24,7.66Z"/>
  <path class="cls-2" d="M47.37,26.92c.07.42,2.1-9.3-1.62-14-2.77-3.5-9.14-4.67-5.33-9.43s8.56-1.44,9.56-.38c3.08,3.27-.57,7.18-2.25,4.79"/>
  <path class="cls-2" d="M53.12,26.53c-.19.23,1.96-6.43,5.88-8.02,2.92-1.18,7.24.33,6.56-3.92-.67-4.25-4.75-3.87-5.73-3.57-3.03.93-2.16,4.6-.29,3.73"/>
  <path class="cls-2" d="M35.88,17.23s3.05,1.68,3.14,5.71"/>
  <circle class="cls-2" cx="31.01" cy="23.05" r=".4"/>
  <circle class="cls-2" cx="70.96" cy="25.13" r=".79"/>
</svg>