<?xml version="1.0" encoding="UTF-8"?>
<svg id="Layer_1" data-name="Layer 1" xmlns="http://www.w3.org/2000/svg" viewBox="0 0 90.39 71.86">
  <defs>
    <style>
      .cls-1 {
        fill: #ffc697;
        stroke-width: 0px;
      }

      .cls-2, .cls-3, .cls-4, .cls-5 {
        fill: none;
        stroke: #ffc697;
        stroke-miterlimit: 10;
      }

      .cls-3 {
        stroke-width: 2px;
      }

      .cls-4 {
        stroke-linecap: round;
      }

      .cls-4, .cls-5 {
        stroke-width: 3px;
      }
    </style>
  </defs>
  <rect class="cls-1" x="5.85" y="46.84" width="77.97" height="10.71" rx="2.81" ry="2.81"/>
  <path class="cls-1" d="M81,27.12v4.44c0,2.22-1.8,4.02-4.02,4.02h-5.75l-.04.17-4.45,4.19v3.78H22.47v-4.42l-3.6-3.39c-.22-.21-.52-.33-.83-.33h-4.83c-2.22,0-4.02-1.8-4.02-4.02v-4.44c0-2.22,1.8-4.02,4.02-4.02h63.77c2.22,0,4.02,1.8,4.02,4.02Z"/>
  <path class="cls-1" d="M7.76,58.32h10.38v9.67c0,2.14-1.73,3.87-3.87,3.87h-2.64c-2.14,0-3.87-1.73-3.87-3.87v-9.67h0Z"/>
  <path class="cls-1" d="M70.05,58.06h10.38v9.56c0,2.34-1.9,4.24-4.24,4.24h-1.9c-2.34,0-4.24-1.9-4.24-4.24v-9.56h0Z"/>
  <rect class="cls-1" x="81.72" y="20.38" width="9.62" height="7.72" rx="2.22" ry="2.22" transform="translate(110.77 -62.29) rotate(90)"/>
  <rect class="cls-1" x="-.95" y="20.57" width="9.62" height="7.72" rx="2.22" ry="2.22" transform="translate(28.29 20.57) rotate(90)"/>
  <ellipse class="cls-3" cx="15.59" cy="41.63" rx="4.29" ry="3.18"/>
  <ellipse class="cls-3" cx="74.06" cy="41.63" rx="4.29" ry="3.18"/>
  <polyline class="cls-2" points="5.1 25.38 14.05 29 6.14 21.95"/>
  <polyline class="cls-2" points="85.1 22.62 75 27.48 85.95 25.38"/>
  <path class="cls-5" d="M27.45,50.05s-2-12.3,9.15-12.35c13.95-.06,16.8.25,16.8.25,0,0,9.92-.55,8.4,12.1"/>
  <path class="cls-5" d="M12.33,24.59S8.6,1.61,29.43,1.52c26.06-.12,31.39.47,31.39.47,0,0,18.54-1.03,15.69,22.61"/>
  <line class="cls-4" x1="17.86" y1="14.91" x2="36.52" y2="24.33"/>
  <line class="cls-4" x1="47.86" y1="14.05" x2="66.52" y2="23.48"/>
  <rect class="cls-4" x="38.36" y="37.95" width="12.95" height="13.08"/>
</svg>