<?xml version="1.0" encoding="UTF-8"?>
<svg id="Layer_1" data-name="Layer 1" xmlns="http://www.w3.org/2000/svg" viewBox="0 0 47.64 87.33">
  <defs>
    <style>
      .cls-1 {
        fill: #ffc697;
        stroke-width: 0px;
      }

      .cls-2 {
        fill: none;
        stroke: #ffc697;
        stroke-linecap: round;
        stroke-linejoin: round;
        stroke-width: 2px;
      }
    </style>
  </defs>
  <path class="cls-1" d="M22.78,87.33s-19.9.48-22.29-15.52c-2.16-14.55,2.94-24.74,11.25-28.61.41-.19.79.35.45.66-1.34,1.26-2.84,3.15-2.92,5.41-.12,3.35,4.56,5.27,8.83,4.06,17.67-5,3.81-18.1,3.81-18.1,0,0-14.17-12.36-.67-21.14.4-.26.84.27.52.61-3.8,4.08-7.86,12.81,10.11,24.15,25.19,15.89,17.39,44.74-3.77,48.3-.33.06,21.51-20-4.92-18.72-16.95.82-.98,18.5-.98,18.5"/>
  <path class="cls-1" d="M5.48,28.21c-1.07.79-7.05,4.76-.38,6.41s4.25-9.27.38-6.41Z"/>
  <path class="cls-1" d="M35.04,24.41c-.19-1.13-1.65-1.17-2-.06-1.01,3.18-.82,8.22,4.96,9.68,8.79,2.21,4.82-6.62.47-6.42-2.32.11-3.15-1.59-3.43-3.2Z"/>
  <path class="cls-1" d="M36.59,6.82s-2.67,5.46,1.84,4.38,1.78-7.56-1.84-4.38Z"/>
  <circle class="cls-2" cx="42.16" cy="40.08" r=".71"/>
  <ellipse class="cls-2" cx="9.09" cy="20.33" rx=".44" ry=".54"/>
  <ellipse class="cls-2" cx="33.12" cy="15.03" rx=".73" ry=".57"/>
  <circle class="cls-2" cx="27.44" cy="1.7" r=".7"/>
</svg>