<?xml version="1.0" encoding="UTF-8"?>
<svg id="Layer_1" data-name="Layer 1" xmlns="http://www.w3.org/2000/svg" viewBox="0 0 94.23 76.87">
  <defs>
    <style>
      .cls-1 {
        fill: #ffc697;
        stroke-width: 0px;
      }
    </style>
  </defs>
  <path class="cls-1" d="M.34,34.21c.75-1.04,27.83,25.87,53.04,18.39,2.68-.79,13.08-3.88,14.42-11.44,1.17-6.57-1.23-16.53-9.65-16.77-4.84-.14-10.19,6.6-10.3,6.06-.33-1.62,1.06-8.44,4.49-11.01,9.61-7.2,20.99-.81,20.95-1.01s1.46-6.71-7.8-9.63c-18.1-5.71-26.15,8.75-26.03,8,.03-.19.65-8.68,8.27-13.09,11.53-6.67,21-2.46,23.48-1.66,1.54.5,14.25,4.8,20.22,18.03,4.65,10.32,2.37,19.79,1.07,25.2-.36,1.49-5.32,21.12-18.31,27.86C46.71,87.4-.67,35.61.34,34.21Z"/>
  <path class="cls-1" d="M0,37.88s30.6,38.73,52.57,38.98l-38.16-2.07c-3.79-.21-6.97-2.91-7.78-6.62L0,37.88Z"/>
</svg>