<?xml version="1.0" encoding="UTF-8"?>
<svg id="Layer_1" data-name="Layer 1" xmlns="http://www.w3.org/2000/svg" viewBox="0 0 88.15 78.58">
  <defs>
    <style>
      .cls-1 {
        fill: #ffc697;
        stroke-width: 0px;
      }
    </style>
  </defs>
  <path class="cls-1" d="M24.13,50.75c-14.85.69-20.19-3.33-22-5.81s-5.23-13.35,4.13-19.69c4.32-2.93,9.55-3.46,11.84-3.54.62-.02,1.08-.55,1.03-1.16-.29-3.28-.25-12.72,9.1-17.32,11.43-5.62,18.76-2.19,18.76-2.19,0,0,5.7,2.5,7.48,9.4.15.57.74.91,1.31.74,2.78-.8,10.31-2.48,14.48,1.18,3.75,3.29,3.96,7.06,3.4,10.65-.09.58.31,1.12.89,1.21,2.79.42,10.16,1.94,12.16,6.63,2.48,5.81,1.95,10.94-2.93,15.42s-48.47,3.97-59.64,4.48Z"/>
  <rect class="cls-1" x="23.25" y="53.73" width="3.91" height="11.93" rx="1.96" ry="1.96" transform="translate(49.59 -.34) rotate(45)"/>
  <rect class="cls-1" x="8.77" y="67.82" width="3.91" height="11.93" rx="1.96" ry="1.96" transform="translate(55.32 14.02) rotate(45)"/>
  <rect class="cls-1" x="42.3" y="53.73" width="3.91" height="11.93" rx="1.96" ry="1.96" transform="translate(55.17 -13.81) rotate(45)"/>
  <rect class="cls-1" x="30.36" y="67.82" width="3.91" height="11.93" rx="1.96" ry="1.96" transform="translate(61.64 -1.24) rotate(45)"/>
  <rect class="cls-1" x="60.71" y="53.73" width="3.91" height="11.93" rx="1.96" ry="1.96" transform="translate(60.56 -26.83) rotate(45)"/>
  <rect class="cls-1" x="51.06" y="67.82" width="3.91" height="11.93" rx="1.96" ry="1.96" transform="translate(67.7 -15.88) rotate(45)"/>
</svg>