<?xml version="1.0" encoding="UTF-8"?>
<svg id="Layer_1" data-name="Layer 1" xmlns="http://www.w3.org/2000/svg" viewBox="0 0 67.57 76.77">
  <defs>
    <style>
      .cls-1 {
        fill: #ffc697;
        stroke-width: 0px;
      }
    </style>
  </defs>
  <path class="cls-1" d="M42.68,75.57c-17.99,4.92-36.57-5.69-41.48-23.68-1.99-7.27-1.43-14.62,1.11-21.14,1.55-2.38,4.29-3.5,6.73-2.68,3.59,1.2,3.47,5.63,3.08,7.64-1.4,4.16-1.63,8.75-.39,13.3,3.33,12.18,15.9,19.35,28.07,16.03,12.18-3.33,19.36-15.9,16.03-28.08-2.58-9.48-10.78-15.91-20.02-16.73l1.85,8.97c.22,1.05-.8,1.95-1.82,1.6l-13.55-4.63-13.59-4.5c-1.03-.34-1.29-1.67-.48-2.38l10.78-9.41L29.7.35c.8-.71,2.08-.28,2.29.78l1.59,8.07c14.93-.1,28.66,9.79,32.78,24.89,4.92,17.99-5.68,36.57-23.68,41.48Z"/>
</svg>